<svg width="152" height="134" xmlns="http://www.w3.org/2000/svg" xmlns:xlink="http://www.w3.org/1999/xlink" xml:space="preserve" overflow="hidden"><defs><clipPath id="clip0"><rect x="120" y="292" width="152" height="134"/></clipPath><clipPath id="clip1"><rect x="121" y="293" width="150" height="133"/></clipPath><clipPath id="clip2"><rect x="121" y="293" width="150" height="133"/></clipPath><clipPath id="clip3"><rect x="121" y="293" width="150" height="133"/></clipPath></defs><g clip-path="url(#clip0)" transform="translate(-120 -292)"><g clip-path="url(#clip1)"><g clip-path="url(#clip2)"><g clip-path="url(#clip3)"><path d="M19.6937 0 11.7861 0 1.64181 9.47309 6.93721 15.1426C9.0258 13.303 10.2692 11.9591 10.6673 11.1146L10.8165 11.1146 10.8165 12.01C10.8165 13.9991 10.8035 17.007 10.7789 21.0355 10.7538 25.0635 10.7413 28.0969 10.7413 30.1358L2.75952 30.1358 2.75952 37.5208 27.7489 37.5208 27.7489 30.1358 19.6937 30.1358 19.6937 0Z" fill="#E7E6E6" fill-rule="nonzero" fill-opacity="1" transform="matrix(1.12782 0 0 1 121 293)"/><path d="M132.069 19.1332C131.594 18.6606 131.036 18.4247 130.389 18.4247L39.6831 18.4247C39.0367 18.4247 38.4784 18.6606 38.005 19.1332 37.5334 19.6059 37.2975 20.165 37.2975 20.8116L37.2975 35.1336C37.2975 35.7803 37.5326 36.3394 38.005 36.812 38.4784 37.2841 39.0367 37.5206 39.6831 37.5206L130.389 37.5206C131.037 37.5206 131.596 37.2841 132.069 36.812 132.541 36.3394 132.776 35.7803 132.776 35.1336L132.776 20.8116C132.777 20.1653 132.541 19.6059 132.069 19.1332Z" fill="#E7E6E6" fill-rule="nonzero" fill-opacity="1" transform="matrix(1.12782 0 0 1 121 293)"/><path d="M19.2461 109.951 26.3325 101.373 26.3325 94.8082 1.49237 94.8082 1.49237 106.146 9.39889 106.146 9.39889 102.193C10.1947 102.193 11.4005 102.17 13.0175 102.12 14.6326 102.069 15.8392 102.045 16.635 102.045L16.635 102.12C15.6889 103.015 14.7698 103.972 13.8744 104.992 12.9791 106.012 11.9225 107.354 10.7039 109.018 9.48615 110.685 8.67883 111.767 8.28066 112.264L10.2195 116.441C15.441 116.042 18.0521 117.434 18.0521 120.618 18.0521 122.01 17.5176 123.067 16.4482 123.787 15.3799 124.51 14.1237 124.87 12.6815 124.87 9.84723 124.87 7.21128 123.751 4.77495 121.513L0.522015 128.077C3.80408 131.359 8.08079 133 13.3527 133 17.3804 133 20.7492 131.857 23.4606 129.569 26.1708 127.281 27.5257 124.148 27.5257 120.17 27.5257 117.634 26.7788 115.446 25.2887 113.605 23.7964 111.767 21.7833 110.547 19.2461 109.951Z" fill="#E7E6E6" fill-rule="nonzero" fill-opacity="1" transform="matrix(1.12782 0 0 1 121 293)"/><path d="M19.8413 77.8754 10.3677 77.8754C10.4181 76.6318 11.3007 75.3264 13.0164 73.9603 14.7322 72.5933 16.6081 71.3379 18.6481 70.1936 20.6862 69.0489 22.5512 67.4466 24.2424 65.3831 25.9333 63.3191 26.7785 61.0439 26.7785 58.5574 26.7785 55.0264 25.5356 52.229 23.0494 50.1652 20.5637 48.1017 17.5045 47.0694 13.8744 47.0694 10.9895 47.0694 8.36609 47.778 6.00396 49.1956 3.64209 50.6128 1.86468 52.5898 0.670939 55.1267L7.01194 59.5275C8.75277 56.6426 10.7666 55.2009 13.0538 55.2009 14.2979 55.2009 15.2798 55.5366 16.0012 56.2078 16.7215 56.8803 17.0831 57.8368 17.0831 59.0802 17.0831 60.2238 16.4984 61.3428 15.3297 62.4367 14.1605 63.5307 12.7559 64.6121 11.1144 65.6814 9.47361 66.7508 7.83206 67.9323 6.19155 69.225 4.55078 70.5181 3.14489 72.2079 1.97624 74.2965 0.808105 76.3851 0.223646 78.6981 0.223646 81.234 0.223646 82.1289 0.372831 83.4718 0.670677 85.262L27.6736 85.262 27.6736 73.3999 27.6736 73.3988 19.8413 73.3988 19.8413 77.8754Z" fill="#E7E6E6" fill-rule="nonzero" fill-opacity="1" transform="matrix(1.12782 0 0 1 121 293)"/><path d="M130.389 94.8082 39.6831 94.8082C38.9873 94.8082 38.4152 95.0324 37.9684 95.4794 37.5208 95.9267 37.2975 96.4986 37.2975 97.1944L37.2975 111.517C37.2975 112.164 37.5326 112.723 38.005 113.195 38.4784 113.667 39.0367 113.903 39.6831 113.903L130.389 113.903C131.037 113.903 131.596 113.669 132.069 113.195 132.541 112.723 132.776 112.164 132.776 111.517L132.776 97.1947C132.776 96.5491 132.539 95.9894 132.069 95.5173 131.595 95.0449 131.036 94.8082 130.389 94.8082Z" fill="#E7E6E6" fill-rule="nonzero" fill-opacity="1" transform="matrix(1.12782 0 0 1 121 293)"/><path d="M130.389 56.6165 39.6831 56.6165C38.9873 56.6165 38.4152 56.8398 37.9684 57.2874 37.5208 57.735 37.2975 58.3071 37.2975 59.0031L37.2975 73.3254C37.2975 73.972 37.5326 74.5306 38.005 75.0038 38.4784 75.4767 39.0367 75.7129 39.6831 75.7129L130.389 75.7129C131.037 75.7129 131.596 75.4767 132.069 75.0038 132.541 74.5306 132.776 73.972 132.776 73.3254L132.776 59.0031C132.776 58.3568 132.539 57.7974 132.069 57.325 131.595 56.8526 131.036 56.6165 130.389 56.6165Z" fill="#E7E6E6" fill-rule="nonzero" fill-opacity="1" transform="matrix(1.12782 0 0 1 121 293)"/></g></g></g></g></svg>