<svg width="510" height="509" xmlns="http://www.w3.org/2000/svg" xmlns:xlink="http://www.w3.org/1999/xlink" xml:space="preserve" overflow="hidden"><defs><clipPath id="clip0"><rect x="686" y="89" width="510" height="509"/></clipPath><clipPath id="clip1"><rect x="687" y="90" width="508" height="508"/></clipPath><clipPath id="clip2"><rect x="687" y="90" width="508" height="508"/></clipPath><clipPath id="clip3"><rect x="687" y="90" width="508" height="508"/></clipPath></defs><g clip-path="url(#clip0)" transform="translate(-686 -89)"><g clip-path="url(#clip1)"><g clip-path="url(#clip2)"><g clip-path="url(#clip3)"><path d="M762.221 90 732.018 90 693.271 126.183 713.497 147.838C721.474 140.812 726.224 135.678 727.744 132.453L728.314 132.453 728.314 135.873C728.314 143.47 728.264 154.959 728.171 170.346 728.075 185.731 728.027 197.317 728.027 205.105L697.54 205.105 697.54 233.313 792.988 233.313 792.988 205.105 762.221 205.105 762.221 90Z" fill="#FFFFFF" fill-rule="nonzero" fill-opacity="1"/><path d="M1191.44 163.08C1189.63 161.275 1187.5 160.374 1185.03 160.374L838.572 160.374C836.103 160.374 833.97 161.275 832.162 163.08 830.361 164.886 829.459 167.021 829.459 169.491L829.459 224.195C829.459 226.664 830.358 228.8 832.162 230.605 833.97 232.409 836.103 233.312 838.572 233.312L1185.03 233.312C1187.5 233.312 1189.64 232.409 1191.44 230.605 1193.25 228.8 1194.14 226.664 1194.14 224.195L1194.14 169.491C1194.15 167.022 1193.25 164.886 1191.44 163.08Z" fill="#FFFFFF" fill-rule="nonzero" fill-opacity="1"/><path d="M760.511 509.963 787.578 477.198 787.578 452.125 692.7 452.125 692.7 495.431 722.9 495.431 722.9 480.33C725.939 480.33 730.545 480.244 736.721 480.054 742.89 479.859 747.498 479.766 750.538 479.766L750.538 480.054C746.925 483.473 743.414 487.126 739.994 491.023 736.574 494.919 732.539 500.045 727.884 506.4 723.233 512.766 720.149 516.899 718.628 518.797L726.034 534.752C745.978 533.229 755.951 538.546 755.951 550.707 755.951 556.024 753.909 560.061 749.825 562.81 745.744 565.57 740.946 566.946 735.438 566.946 724.612 566.946 714.544 562.674 705.238 554.123L688.994 579.196C701.53 591.732 717.865 598 738.001 598 753.385 598 766.253 593.635 776.609 584.896 786.961 576.156 792.136 564.19 792.136 548.997 792.136 539.308 789.283 530.951 783.592 523.92 777.891 516.898 770.202 512.24 760.511 509.963Z" fill="#FFFFFF" fill-rule="nonzero" fill-opacity="1"/><path d="M762.785 387.449 726.6 387.449C726.792 382.699 730.163 377.713 736.717 372.495 743.27 367.274 750.435 362.479 758.227 358.108 766.012 353.736 773.135 347.616 779.595 339.734 786.053 331.85 789.282 323.16 789.282 313.663 789.282 300.176 784.535 289.491 775.038 281.608 765.544 273.727 753.859 269.784 739.994 269.784 728.975 269.784 718.955 272.49 709.932 277.905 700.911 283.318 694.122 290.869 689.563 300.559L713.782 317.368C720.432 306.349 728.124 300.843 736.86 300.843 741.612 300.843 745.362 302.125 748.117 304.689 750.868 307.257 752.25 310.911 752.25 315.66 752.25 320.028 750.016 324.302 745.552 328.48 741.087 332.659 735.722 336.789 729.452 340.873 723.185 344.958 716.915 349.471 710.649 354.408 704.382 359.347 699.012 365.802 694.548 373.779 690.087 381.757 687.854 390.591 687.854 400.277 687.854 403.695 688.424 408.824 689.562 415.662L792.701 415.662 792.701 370.354 792.701 370.35 762.785 370.35 762.785 387.449Z" fill="#FFFFFF" fill-rule="nonzero" fill-opacity="1"/><path d="M1185.03 452.125 838.572 452.125C835.914 452.125 833.729 452.981 832.022 454.688 830.313 456.397 829.459 458.581 829.459 461.239L829.459 515.944C829.459 518.414 830.358 520.551 832.162 522.354 833.97 524.158 836.103 525.059 838.572 525.059L1185.03 525.059C1187.5 525.059 1189.64 524.165 1191.44 522.354 1193.25 520.551 1194.14 518.414 1194.14 515.944L1194.14 461.24C1194.14 458.774 1193.24 456.636 1191.44 454.833 1189.63 453.029 1187.5 452.125 1185.03 452.125Z" fill="#FFFFFF" fill-rule="nonzero" fill-opacity="1"/><path d="M1185.03 306.249 838.572 306.249C835.914 306.249 833.729 307.103 832.022 308.812 830.313 310.521 829.459 312.707 829.459 315.365L829.459 370.07C829.459 372.54 830.358 374.673 832.162 376.481 833.97 378.287 836.103 379.189 838.572 379.189L1185.03 379.189C1187.5 379.189 1189.64 378.287 1191.44 376.481 1193.25 374.673 1194.14 372.54 1194.14 370.07L1194.14 315.365C1194.14 312.897 1193.24 310.76 1191.44 308.956 1189.63 307.151 1187.5 306.249 1185.03 306.249Z" fill="#FFFFFF" fill-rule="nonzero" fill-opacity="1"/></g></g></g></g></svg>